<mxfile host="www.draw.io" modified="2019-12-02T22:01:03.959Z" agent="Mozilla/5.0 (Windows NT 10.0; Win64; x64) AppleWebKit/537.36 (KHTML, like Gecko) Chrome/77.0.3865.90 Safari/537.36" etag="Jg8hqdO6uwc8y_r9AjJe" version="12.3.5" type="github" pages="1">
  <diagram id="kPUq5T-oi7WzI7m_eqMN" name="Page-1">
    <mxGraphModel dx="1408" dy="771" grid="1" gridSize="10" guides="1" tooltips="1" connect="1" arrows="1" fold="1" page="1" pageScale="1" pageWidth="1100" pageHeight="850" math="0" shadow="0">
      <root>
        <mxCell id="0"/>
        <mxCell id="1" parent="0"/>
        <mxCell id="YdWNknsOw2Kzl1rjpFZm-63" value="" style="group" vertex="1" connectable="0" parent="1">
          <mxGeometry x="280" y="298" width="260" height="40" as="geometry"/>
        </mxCell>
        <mxCell id="YdWNknsOw2Kzl1rjpFZm-64" value="&lt;b&gt;&lt;u&gt;id&lt;/u&gt; : &lt;/b&gt;int" style="rounded=0;whiteSpace=wrap;html=1;" vertex="1" parent="YdWNknsOw2Kzl1rjpFZm-63">
          <mxGeometry width="80" height="40" as="geometry"/>
        </mxCell>
        <mxCell id="YdWNknsOw2Kzl1rjpFZm-65" value="&lt;b&gt;name : &lt;/b&gt;string" style="rounded=0;whiteSpace=wrap;html=1;" vertex="1" parent="YdWNknsOw2Kzl1rjpFZm-63">
          <mxGeometry x="80" width="80" height="40" as="geometry"/>
        </mxCell>
        <mxCell id="YdWNknsOw2Kzl1rjpFZm-66" value="&lt;b&gt;epost: &lt;/b&gt;string" style="rounded=0;whiteSpace=wrap;html=1;" vertex="1" parent="YdWNknsOw2Kzl1rjpFZm-63">
          <mxGeometry x="160" width="100" height="40" as="geometry"/>
        </mxCell>
        <mxCell id="YdWNknsOw2Kzl1rjpFZm-67" value="1" style="rounded=0;whiteSpace=wrap;html=1;" vertex="1" parent="1">
          <mxGeometry x="280" y="338" width="80" height="40" as="geometry"/>
        </mxCell>
        <mxCell id="YdWNknsOw2Kzl1rjpFZm-68" value="charles wright" style="rounded=0;whiteSpace=wrap;html=1;" vertex="1" parent="1">
          <mxGeometry x="360" y="338" width="80" height="40" as="geometry"/>
        </mxCell>
        <mxCell id="YdWNknsOw2Kzl1rjpFZm-69" value="c.w@email.com" style="rounded=0;whiteSpace=wrap;html=1;" vertex="1" parent="1">
          <mxGeometry x="440" y="338" width="100" height="40" as="geometry"/>
        </mxCell>
        <mxCell id="YdWNknsOw2Kzl1rjpFZm-70" value="3" style="rounded=0;whiteSpace=wrap;html=1;" vertex="1" parent="1">
          <mxGeometry x="280" y="418" width="80" height="40" as="geometry"/>
        </mxCell>
        <mxCell id="YdWNknsOw2Kzl1rjpFZm-71" value="simon bates" style="rounded=0;whiteSpace=wrap;html=1;" vertex="1" parent="1">
          <mxGeometry x="360" y="418" width="80" height="40" as="geometry"/>
        </mxCell>
        <mxCell id="YdWNknsOw2Kzl1rjpFZm-72" value="s.b@email.com" style="rounded=0;whiteSpace=wrap;html=1;" vertex="1" parent="1">
          <mxGeometry x="440" y="418" width="100" height="40" as="geometry"/>
        </mxCell>
        <mxCell id="YdWNknsOw2Kzl1rjpFZm-73" value="2" style="rounded=0;whiteSpace=wrap;html=1;" vertex="1" parent="1">
          <mxGeometry x="280" y="378" width="80" height="40" as="geometry"/>
        </mxCell>
        <mxCell id="YdWNknsOw2Kzl1rjpFZm-74" value="james brown" style="rounded=0;whiteSpace=wrap;html=1;" vertex="1" parent="1">
          <mxGeometry x="360" y="378" width="80" height="40" as="geometry"/>
        </mxCell>
        <mxCell id="YdWNknsOw2Kzl1rjpFZm-75" value="j.b@email.com" style="rounded=0;whiteSpace=wrap;html=1;" vertex="1" parent="1">
          <mxGeometry x="440" y="378" width="100" height="40" as="geometry"/>
        </mxCell>
        <mxCell id="YdWNknsOw2Kzl1rjpFZm-76" value="" style="shape=curlyBracket;whiteSpace=wrap;html=1;rounded=1;" vertex="1" parent="1">
          <mxGeometry x="220" y="338" width="20" height="120" as="geometry"/>
        </mxCell>
        <mxCell id="YdWNknsOw2Kzl1rjpFZm-77" value="&lt;b&gt;Tuples / Rows&lt;/b&gt;" style="text;html=1;align=center;verticalAlign=middle;resizable=0;points=[];;autosize=1;" vertex="1" parent="1">
          <mxGeometry x="115" y="388" width="100" height="20" as="geometry"/>
        </mxCell>
        <mxCell id="YdWNknsOw2Kzl1rjpFZm-78" value="" style="shape=curlyBracket;whiteSpace=wrap;html=1;rounded=1;rotation=91;" vertex="1" parent="1">
          <mxGeometry x="400" y="148" width="20" height="260" as="geometry"/>
        </mxCell>
        <mxCell id="YdWNknsOw2Kzl1rjpFZm-79" value="&lt;b&gt;Attributes / Columns&lt;/b&gt; : Domain&amp;nbsp;" style="text;html=1;align=center;verticalAlign=middle;resizable=0;points=[];;autosize=1;" vertex="1" parent="1">
          <mxGeometry x="306" y="247" width="190" height="20" as="geometry"/>
        </mxCell>
        <mxCell id="YdWNknsOw2Kzl1rjpFZm-80" value="&lt;b&gt;Users&amp;nbsp;&lt;/b&gt;" style="text;html=1;align=center;verticalAlign=middle;resizable=0;points=[];;autosize=1;" vertex="1" parent="1">
          <mxGeometry x="280" y="219" width="50" height="20" as="geometry"/>
        </mxCell>
        <mxCell id="YdWNknsOw2Kzl1rjpFZm-83" value="" style="group" vertex="1" connectable="0" parent="1">
          <mxGeometry x="480" y="598" width="420" height="110" as="geometry"/>
        </mxCell>
        <mxCell id="YdWNknsOw2Kzl1rjpFZm-86" value="&lt;b&gt;Passwords&lt;/b&gt;" style="rounded=0;whiteSpace=wrap;html=1;align=left;" vertex="1" parent="YdWNknsOw2Kzl1rjpFZm-83">
          <mxGeometry x="125" y="12" width="250" height="40" as="geometry"/>
        </mxCell>
        <mxCell id="YdWNknsOw2Kzl1rjpFZm-87" value="&lt;u&gt;epost (pk)&lt;/u&gt;" style="rounded=0;whiteSpace=wrap;html=1;" vertex="1" parent="YdWNknsOw2Kzl1rjpFZm-83">
          <mxGeometry x="125" y="52" width="120" height="30" as="geometry"/>
        </mxCell>
        <mxCell id="YdWNknsOw2Kzl1rjpFZm-88" value="password (ak)" style="rounded=0;whiteSpace=wrap;html=1;" vertex="1" parent="YdWNknsOw2Kzl1rjpFZm-83">
          <mxGeometry x="245" y="52" width="130" height="30" as="geometry"/>
        </mxCell>
        <mxCell id="YdWNknsOw2Kzl1rjpFZm-95" value="&lt;b&gt;Users&lt;/b&gt;" style="rounded=0;whiteSpace=wrap;html=1;align=left;" vertex="1" parent="1">
          <mxGeometry x="266" y="550" width="259" height="40" as="geometry"/>
        </mxCell>
        <mxCell id="YdWNknsOw2Kzl1rjpFZm-96" value="" style="group" vertex="1" connectable="0" parent="1">
          <mxGeometry x="265" y="590" width="260" height="40" as="geometry"/>
        </mxCell>
        <mxCell id="YdWNknsOw2Kzl1rjpFZm-97" value="&lt;b&gt;&lt;u&gt;id (pk)&lt;/u&gt;&lt;/b&gt;" style="rounded=0;whiteSpace=wrap;html=1;" vertex="1" parent="YdWNknsOw2Kzl1rjpFZm-96">
          <mxGeometry width="80" height="40" as="geometry"/>
        </mxCell>
        <mxCell id="YdWNknsOw2Kzl1rjpFZm-98" value="&lt;b&gt;name (ak)&lt;/b&gt;" style="rounded=0;whiteSpace=wrap;html=1;" vertex="1" parent="YdWNknsOw2Kzl1rjpFZm-96">
          <mxGeometry x="80" width="80" height="40" as="geometry"/>
        </mxCell>
        <mxCell id="YdWNknsOw2Kzl1rjpFZm-99" value="&lt;b&gt;epost (fk) (ak)&lt;/b&gt;" style="rounded=0;whiteSpace=wrap;html=1;" vertex="1" parent="YdWNknsOw2Kzl1rjpFZm-96">
          <mxGeometry x="160" width="100" height="40" as="geometry"/>
        </mxCell>
        <mxCell id="YdWNknsOw2Kzl1rjpFZm-100" style="edgeStyle=orthogonalEdgeStyle;rounded=0;orthogonalLoop=1;jettySize=auto;html=1;exitX=0.75;exitY=1;exitDx=0;exitDy=0;entryX=0;entryY=0.5;entryDx=0;entryDy=0;" edge="1" parent="1" source="YdWNknsOw2Kzl1rjpFZm-99" target="YdWNknsOw2Kzl1rjpFZm-87">
          <mxGeometry relative="1" as="geometry"/>
        </mxCell>
        <mxCell id="YdWNknsOw2Kzl1rjpFZm-101" value="" style="shape=curlyBracket;whiteSpace=wrap;html=1;rounded=1;" vertex="1" parent="1">
          <mxGeometry x="195" y="550" width="20" height="140" as="geometry"/>
        </mxCell>
        <mxCell id="YdWNknsOw2Kzl1rjpFZm-102" value="&lt;b&gt;Database Schema&lt;/b&gt;" style="text;html=1;align=center;verticalAlign=middle;resizable=0;points=[];;autosize=1;" vertex="1" parent="1">
          <mxGeometry x="70" y="580" width="120" height="20" as="geometry"/>
        </mxCell>
        <mxCell id="YdWNknsOw2Kzl1rjpFZm-103" value="" style="shape=curlyBracket;whiteSpace=wrap;html=1;rounded=1;rotation=179;" vertex="1" parent="1">
          <mxGeometry x="552" y="219" width="20" height="112" as="geometry"/>
        </mxCell>
        <mxCell id="YdWNknsOw2Kzl1rjpFZm-109" value="&lt;b&gt;Relation Schema/&lt;br&gt;Table definition&lt;br&gt;&lt;/b&gt;" style="text;html=1;align=center;verticalAlign=middle;resizable=0;points=[];;autosize=1;" vertex="1" parent="1">
          <mxGeometry x="567" y="233" width="120" height="30" as="geometry"/>
        </mxCell>
        <mxCell id="YdWNknsOw2Kzl1rjpFZm-112" value="" style="shape=curlyBracket;whiteSpace=wrap;html=1;rounded=1;rotation=90;" vertex="1" parent="1">
          <mxGeometry x="291" y="176" width="20" height="43" as="geometry"/>
        </mxCell>
        <mxCell id="YdWNknsOw2Kzl1rjpFZm-115" value="&lt;b&gt;Relation schema name / Table name&lt;/b&gt;" style="text;html=1;align=center;verticalAlign=middle;resizable=0;points=[];;autosize=1;" vertex="1" parent="1">
          <mxGeometry x="195" y="170" width="220" height="20" as="geometry"/>
        </mxCell>
        <mxCell id="YdWNknsOw2Kzl1rjpFZm-116" value="" style="shape=curlyBracket;whiteSpace=wrap;html=1;rounded=1;" vertex="1" parent="1">
          <mxGeometry x="70" y="180" width="20" height="290" as="geometry"/>
        </mxCell>
        <mxCell id="YdWNknsOw2Kzl1rjpFZm-117" value="&lt;b&gt;Relation /&lt;br&gt;Table&lt;/b&gt;" style="text;html=1;align=center;verticalAlign=middle;resizable=0;points=[];;autosize=1;" vertex="1" parent="1">
          <mxGeometry x="5" y="241" width="70" height="30" as="geometry"/>
        </mxCell>
      </root>
    </mxGraphModel>
  </diagram>
</mxfile>
